<svg id="Calque_1" data-name="Calque 1" xmlns="http://www.w3.org/2000/svg" viewBox="0 0 501 501"><defs><style>.cls-1{fill:#2e3154;stroke:#000;stroke-miterlimit:10;}.cls-2{fill:#fff;}</style></defs><title>logo</title><rect class="cls-1" x="0.5" y="0.5" width="500" height="500"/><path class="cls-2" d="M120.21,112.76h5.65v22.59h-5.65V141h-5.64v5.65h5.64v5.64h5.65v22.59h-5.65v5.65H108.92v-5.65h-5.65v-5.65H97.63v-5.64H92v-5.65H86.33v16.94H80.69v5.65H52.45v-5.65H46.8V107.12h5.65v11.29H58.1v-5.65h5.64v-5.64H52.45v-5.65h62.12v5.65h5.64Zm-16.94,5.65H86.33V129.7h16.94Z" transform="translate(0.5 0.5)"/><path class="cls-2" d="M199.27,118.41h5.65v5.65h-5.65v5.64H171v5.65h28.23V141h5.65v5.65h-5.65v5.64H171v5.65h28.23v5.65h5.65v11.29h-5.65v5.65H142.8v-5.65h-5.65V118.41h5.65V129.7h5.65v-5.64h5.65v-5.65H142.8v-5.65h56.47Z" transform="translate(0.5 0.5)"/><path class="cls-2" d="M221.86,129.7h-5.65V118.41h5.65Zm56.47-11.29H284V129.7h-5.65v5.65H267v39.53h-5.65v5.65H238.8v-5.65h-5.65V135.35H221.86V129.7h5.65v-5.64h5.64v-5.65H221.86v-5.65h56.47Z" transform="translate(0.5 0.5)"/><path class="cls-2" d="M357.39,124.06H363V141h-5.64v5.65h-5.65v5.64h5.65v5.65H363v16.94h-5.64v5.65h-5.65v-5.65h-5.65v-5.65h-5.64v-5.64H334.8v-5.65h-5.65v16.94H323.5v5.65H300.92v-5.65h-5.65V118.41h5.65V129.7h5.64v-5.64h5.65v-5.65H300.92v-5.65h50.82v5.65h5.65Zm-11.3,11.29V129.7H329.15v5.65Z" transform="translate(0.5 0.5)"/><path class="cls-2" d="M436.45,124.06h5.64v45.17h-5.64v5.65H430.8v5.65H385.62v-5.65H380v-5.65h-5.64V124.06H380v5.64h5.65v-5.64h5.65v-5.65h-5.65v-5.65H430.8v5.65h5.65Zm-11.3,5.64H408.21v28.24h16.94Z" transform="translate(0.5 0.5)"/><path class="cls-2" d="M156.92,228h5.65v22.59h-5.65v5.65h5.65v28.23h-5.65v5.65h-5.65v5.65H89.16v-5.65H83.51V222.32h5.65v11.29H94.8V228h5.65v-5.64H89.16v-5.65h62.11v5.65h5.65ZM140,233.61H123V244.9H140Zm0,39.53V261.85H123v11.29Z" transform="translate(0.5 0.5)"/><path class="cls-2" d="M236,239.26h5.64V256.2H236v5.65h-5.65v5.64H236v5.65h5.64v16.94H236v5.65h-5.65v-5.65h-5.65v-5.65H219v-5.64h-5.65v-5.65h-5.65v16.94H202.1v5.65H179.51v-5.65h-5.65V233.61h5.65V244.9h5.64v-5.64h5.65v-5.65H179.51V228h50.82v5.65H236Zm-11.3,11.29V244.9H207.74v5.65Z" transform="translate(0.5 0.5)"/><path class="cls-2" d="M315,233.61h5.64v5.65H315v5.64H286.8v5.65H315v5.65h5.64v5.65H315v5.64H286.8v5.65H315v5.65h5.64v11.29H315v5.65H258.56v-5.65h-5.64V233.61h5.64V244.9h5.65v-5.64h5.65v-5.65h-11.3V228H315Z" transform="translate(0.5 0.5)"/><path class="cls-2" d="M399.74,233.61h5.65v56.47h-5.65v5.65H388.45v-5.65H382.8v-5.65h-5.65v-5.64H371.5v5.64h-5.64v5.65h-5.65v5.65H337.62v-5.65H332V233.61h5.65V244.9h5.65v-5.64h5.65v-5.65h-11.3V228h22.59v5.65h5.65v28.24h5.64V256.2h5.65v5.65h5.65V233.61h5.65V228h11.29Z" transform="translate(0.5 0.5)"/><rect class="cls-2" x="130.5" y="350.5" width="40" height="100"/><rect class="cls-2" x="100.5" y="380.5" width="100" height="40"/><circle class="cls-2" cx="370.5" cy="380.5" r="20"/><circle class="cls-2" cx="330.5" cy="420.5" r="20"/></svg>