<?xml version="1.0" standalone="no"?>
<!DOCTYPE svg PUBLIC "-//W3C//DTD SVG 20010904//EN"
 "http://www.w3.org/TR/2001/REC-SVG-20010904/DTD/svg10.dtd">
<svg version="1.0" xmlns="http://www.w3.org/2000/svg"
 width="394.000000pt" height="93.000000pt" viewBox="0 0 394.000000 93.000000"
 preserveAspectRatio="xMidYMid meet">

<g transform="translate(0.000000,93.000000) scale(0.100000,-0.100000)"
fill="#000000" stroke="none">
<path d="M0 465 l0 -465 1970 0 1970 0 0 465 0 465 -1970 0 -1970 0 0 -465z
m460 180 c0 -8 7 -15 15 -15 8 0 15 -7 15 -15 0 -8 7 -15 15 -15 12 0 15 -13
15 -55 0 -42 -3 -55 -15 -55 -8 0 -15 -7 -15 -15 0 -8 -7 -15 -15 -15 -8 0
-15 -7 -15 -15 0 -8 7 -15 15 -15 8 0 15 -7 15 -15 0 -8 7 -15 15 -15 12 0 15
-13 15 -55 0 -42 -3 -55 -15 -55 -8 0 -15 -7 -15 -15 0 -10 -10 -15 -30 -15
-20 0 -30 5 -30 15 0 8 -4 15 -10 15 -5 0 -28 18 -50 40 -22 22 -42 40 -45 40
-3 0 -5 -18 -5 -40 0 -29 -4 -40 -15 -40 -8 0 -15 -7 -15 -15 0 -12 -14 -15
-70 -15 -56 0 -70 3 -70 15 0 8 -7 15 -15 15 -13 0 -15 26 -15 170 0 144 2
170 15 170 8 0 15 7 15 15 0 13 24 15 155 15 131 0 155 -2 155 -15z m420 -60
c0 -8 7 -15 15 -15 8 0 15 -7 15 -15 0 -8 -7 -15 -15 -15 -8 0 -15 -7 -15 -15
0 -12 -14 -15 -70 -15 -56 0 -70 -3 -70 -15 0 -12 14 -15 70 -15 56 0 70 -3
70 -15 0 -8 7 -15 15 -15 8 0 15 -4 15 -10 0 -5 -7 -10 -15 -10 -8 0 -15 -7
-15 -15 0 -12 -14 -15 -70 -15 -56 0 -70 -3 -70 -15 0 -12 14 -15 70 -15 56 0
70 -3 70 -15 0 -8 7 -15 15 -15 9 0 15 -9 15 -25 0 -16 -6 -25 -15 -25 -8 0
-15 -7 -15 -15 0 -13 -22 -15 -140 -15 -118 0 -140 2 -140 15 0 8 -7 15 -15
15 -13 0 -15 22 -15 140 0 118 2 140 15 140 8 0 15 7 15 15 0 13 22 15 140 15
118 0 140 -2 140 -15z m400 0 c0 -8 7 -15 15 -15 10 0 15 -10 15 -30 0 -20 -5
-30 -15 -30 -8 0 -15 -4 -15 -10 0 -5 -11 -10 -25 -10 l-25 0 0 -100 c0 -82
-3 -100 -15 -100 -8 0 -15 -7 -15 -15 0 -12 -13 -15 -60 -15 -47 0 -60 3 -60
15 0 8 -7 15 -15 15 -12 0 -15 18 -15 100 l0 100 -25 0 c-14 0 -25 5 -25 10 0
6 -7 10 -15 10 -10 0 -15 10 -15 30 0 20 5 30 15 30 8 0 15 7 15 15 0 13 22
15 140 15 118 0 140 -2 140 -15z m380 0 c0 -8 5 -15 10 -15 6 0 10 -7 10 -15
0 -8 7 -15 15 -15 11 0 15 -11 15 -40 0 -29 -4 -40 -15 -40 -8 0 -15 -7 -15
-15 0 -8 -4 -15 -10 -15 -5 0 -10 -7 -10 -15 0 -8 5 -15 10 -15 6 0 10 -7 10
-15 0 -8 7 -15 15 -15 11 0 15 -11 15 -40 0 -29 -4 -40 -15 -40 -8 0 -15 -7
-15 -15 0 -8 -7 -15 -15 -15 -8 0 -15 5 -15 11 0 14 -55 69 -69 69 -6 0 -11 7
-11 15 0 8 -7 15 -15 15 -11 0 -15 -11 -15 -40 0 -22 -4 -40 -10 -40 -5 0 -10
-7 -10 -15 0 -12 -13 -15 -60 -15 -47 0 -60 3 -60 15 0 8 -7 15 -15 15 -13 0
-15 22 -15 140 0 118 2 140 15 140 8 0 15 7 15 15 0 13 21 15 130 15 109 0
130 -2 130 -15z m390 0 c0 -8 7 -15 15 -15 8 0 15 -7 15 -15 0 -8 7 -15 15
-15 12 0 15 -18 15 -105 l0 -104 -35 -36 -36 -35 -104 0 c-87 0 -105 3 -105
15 0 8 -4 15 -10 15 -5 0 -19 9 -30 20 -17 17 -20 33 -20 125 0 87 3 105 15
105 8 0 15 -7 15 -15 0 -8 7 -15 15 -15 8 0 15 7 15 15 0 8 5 15 10 15 6 0 10
7 10 15 0 8 -4 15 -10 15 -5 0 -10 7 -10 15 0 12 19 15 110 15 91 0 110 -3
110 -15z m400 0 c0 -8 7 -15 15 -15 8 0 15 -7 15 -15 0 -8 7 -15 15 -15 11 0
15 -11 15 -40 0 -29 -4 -40 -15 -40 -8 0 -15 -7 -15 -15 0 -8 7 -15 15 -15 11
0 15 -12 15 -50 0 -43 -4 -54 -35 -85 l-36 -35 -119 0 c-100 0 -120 3 -120 15
0 8 -7 15 -15 15 -13 0 -15 22 -15 140 0 118 2 140 15 140 8 0 15 7 15 15 0
13 21 15 125 15 104 0 125 -2 125 -15z m410 0 c0 -8 5 -15 10 -15 6 0 10 -7
10 -15 0 -8 7 -15 15 -15 11 0 15 -11 15 -40 0 -29 -4 -40 -15 -40 -8 0 -15
-7 -15 -15 0 -8 -4 -15 -10 -15 -5 0 -10 -7 -10 -15 0 -8 5 -15 10 -15 6 0 10
-7 10 -15 0 -8 7 -15 15 -15 11 0 15 -11 15 -40 0 -29 -4 -40 -15 -40 -8 0
-15 -7 -15 -15 0 -8 -7 -15 -15 -15 -8 0 -15 5 -15 11 0 14 -55 69 -69 69 -6
0 -11 7 -11 15 0 8 -7 15 -15 15 -11 0 -15 -11 -15 -40 0 -22 -4 -40 -10 -40
-5 0 -10 -7 -10 -15 0 -12 -13 -15 -60 -15 -47 0 -60 3 -60 15 0 8 -7 15 -15
15 -13 0 -15 22 -15 140 0 118 2 140 15 140 8 0 15 7 15 15 0 13 21 15 130 15
109 0 130 -2 130 -15z m420 0 c0 -8 7 -15 15 -15 8 0 15 -7 15 -15 0 -8 -7
-15 -15 -15 -8 0 -15 -7 -15 -15 0 -12 -14 -15 -70 -15 -56 0 -70 -3 -70 -15
0 -12 14 -15 70 -15 56 0 70 -3 70 -15 0 -8 7 -15 15 -15 8 0 15 -4 15 -10 0
-5 -7 -10 -15 -10 -8 0 -15 -7 -15 -15 0 -12 -14 -15 -70 -15 -56 0 -70 -3
-70 -15 0 -12 14 -15 70 -15 56 0 70 -3 70 -15 0 -8 7 -15 15 -15 9 0 15 -9
15 -25 0 -16 -6 -25 -15 -25 -8 0 -15 -7 -15 -15 0 -13 -22 -15 -140 -15 -118
0 -140 2 -140 15 0 8 -7 15 -15 15 -13 0 -15 22 -15 140 0 118 2 140 15 140 8
0 15 7 15 15 0 13 22 15 140 15 118 0 140 -2 140 -15z m230 0 c0 -8 7 -15 15
-15 12 0 15 -14 15 -70 0 -56 3 -70 15 -70 8 0 15 7 15 15 0 8 7 15 15 15 8 0
15 -7 15 -15 0 -8 5 -15 10 -15 6 0 10 30 10 70 0 56 3 70 15 70 8 0 15 7 15
15 0 10 10 15 30 15 20 0 30 -5 30 -15 0 -8 7 -15 15 -15 13 0 15 -22 15 -140
0 -118 -2 -140 -15 -140 -8 0 -15 -7 -15 -15 0 -10 -10 -15 -30 -15 -20 0 -30
5 -30 15 0 8 -5 15 -10 15 -6 0 -22 12 -35 26 l-25 27 -25 -27 c-13 -14 -29
-26 -35 -26 -5 0 -10 -7 -10 -15 0 -12 -13 -15 -55 -15 -42 0 -55 3 -55 15 0
8 -7 15 -15 15 -13 0 -15 22 -15 140 0 118 2 140 15 140 8 0 15 7 15 15 0 12
13 15 55 15 42 0 55 -3 55 -15z"/>
<path d="M150 600 c0 -20 5 -30 15 -30 8 0 15 7 15 15 0 8 5 15 10 15 6 0 10
7 10 15 0 9 -9 15 -25 15 -21 0 -25 -5 -25 -30z"/>
<path d="M320 540 c0 -28 2 -30 40 -30 38 0 40 2 40 30 0 28 -2 30 -40 30 -38
0 -40 -2 -40 -30z"/>
<path d="M600 540 c0 -20 5 -30 15 -30 8 0 15 7 15 15 0 8 5 15 10 15 6 0 10
7 10 15 0 9 -9 15 -25 15 -21 0 -25 -5 -25 -30z"/>
<path d="M1000 540 c0 -20 5 -30 15 -30 8 0 15 7 15 15 0 8 5 15 10 15 6 0 10
7 10 15 0 9 -9 15 -25 15 -21 0 -25 -5 -25 -30z"/>
<path d="M1400 540 c0 -20 5 -30 15 -30 8 0 15 7 15 15 0 8 5 15 10 15 6 0 10
7 10 15 0 9 -9 15 -25 15 -21 0 -25 -5 -25 -30z"/>
<path d="M1540 495 c0 -11 12 -15 45 -15 33 0 45 4 45 15 0 11 -12 15 -45 15
-33 0 -45 -4 -45 -15z"/>
<path d="M1940 440 l0 -70 40 0 40 0 0 70 0 70 -40 0 -40 0 0 -70z"/>
<path d="M2200 540 c0 -20 5 -30 15 -30 8 0 15 7 15 15 0 8 5 15 10 15 6 0 10
7 10 15 0 9 -9 15 -25 15 -21 0 -25 -5 -25 -30z"/>
<path d="M2340 495 c0 -11 11 -15 40 -15 29 0 40 4 40 15 0 11 -11 15 -40 15
-29 0 -40 -4 -40 -15z"/>
<path d="M2340 385 c0 -11 11 -15 40 -15 29 0 40 4 40 15 0 11 -11 15 -40 15
-29 0 -40 -4 -40 -15z"/>
<path d="M2600 540 c0 -20 5 -30 15 -30 8 0 15 7 15 15 0 8 5 15 10 15 6 0 10
7 10 15 0 9 -9 15 -25 15 -21 0 -25 -5 -25 -30z"/>
<path d="M2740 495 c0 -11 12 -15 45 -15 33 0 45 4 45 15 0 11 -12 15 -45 15
-33 0 -45 -4 -45 -15z"/>
<path d="M3000 540 c0 -20 5 -30 15 -30 8 0 15 7 15 15 0 8 5 15 10 15 6 0 10
7 10 15 0 9 -9 15 -25 15 -21 0 -25 -5 -25 -30z"/>
<path d="M3400 540 c0 -20 5 -30 15 -30 8 0 15 7 15 15 0 8 5 15 10 15 6 0 10
7 10 15 0 9 -9 15 -25 15 -21 0 -25 -5 -25 -30z"/>
</g>
</svg>
